<svg width="20" height="24" viewBox="0 0 20 24" fill="none" xmlns="http://www.w3.org/2000/svg">
<path fill-rule="evenodd" clip-rule="evenodd" d="M10 0C7.01626 0 4.59744 2.47965 4.59744 5.53846C4.59744 8.59726 7.01626 11.0769 10 11.0769C12.9838 11.0769 15.4026 8.59726 15.4026 5.53846C15.4026 2.47965 12.9838 0 10 0ZM6.3983 5.53846C6.3983 3.49926 8.01087 1.84615 10 1.84615C11.9891 1.84615 13.6017 3.49926 13.6017 5.53846C13.6017 7.57763 11.9891 9.23077 10 9.23077C8.01087 9.23077 6.3983 7.57763 6.3983 5.53846ZM10 12C5.8548 12 3.29203 13.3218 1.79193 15.215C0.321133 17.071 0.00440697 19.3131 1.28832e-05 20.9051C-0.00527263 22.8179 1.61667 24 3.23967 24H16.7603C18.3834 24 20.0053 22.8179 20 20.9051C19.9956 19.3131 19.6789 17.071 18.2081 15.215C16.708 13.3218 14.1452 12 10 12ZM1.80086 20.9103C1.8047 19.5198 2.08777 17.7696 3.18971 16.379C4.26234 15.0254 6.24522 13.8462 10 13.8462C13.7548 13.8462 15.7377 15.0254 16.8103 16.379C17.9123 17.7696 18.1953 19.5198 18.1991 20.9103C18.2009 21.5614 17.6383 22.1538 16.7603 22.1538H3.23967C2.36175 22.1538 1.79906 21.5614 1.80086 20.9103Z" fill="white"/>
</svg>
